<svg data-v-423bf9ae="" xmlns="http://www.w3.org/2000/svg" viewBox="0 0 185.0728684963866 60" class="font"><!----><!----><!----><g data-v-423bf9ae="" id="1419ca36-f009-466d-bfb2-16bf3cff1a58" fill="black" transform="matrix(5.830903271297242,0,0,5.830903271297242,-4.956265490836458,-21.282797019476043)"><path d="M3.14 13.94C4.03 13.94 4.90 13.51 5.60 12.96L5.66 12.96L5.81 13.78L7.49 13.78L7.49 9.66C7.49 7.50 6.30 6.45 4.35 6.45C3.16 6.45 2.06 6.87 1.39 7.43L2.11 8.78C2.62 8.37 3.28 8.11 3.95 8.11C4.89 8.11 5.36 8.51 5.43 9.18C2.14 9.39 0.85 10.21 0.85 11.80C0.85 13.01 1.74 13.94 3.14 13.94ZM3.79 12.35C3.21 12.35 2.83 12.12 2.83 11.65C2.83 11.00 3.39 10.54 5.43 10.42L5.43 11.65C4.94 12.05 4.41 12.35 3.79 12.35ZM8.90 13.78L10.84 13.78L10.84 8.93C11.03 8.46 11.20 8.20 11.47 8.20C11.73 8.20 11.87 8.44 11.87 8.92L11.87 13.78L13.45 13.78L13.45 8.93C13.64 8.46 13.83 8.20 14.10 8.20C14.38 8.20 14.49 8.44 14.49 8.92L14.49 13.78L16.42 13.78L16.42 8.76C16.42 7.34 15.85 6.45 14.88 6.45C14.10 6.45 13.61 6.97 13.36 7.63C13.19 6.86 12.75 6.45 12.14 6.45C11.34 6.45 10.92 6.93 10.65 7.53L10.60 7.53L10.44 6.64L8.90 6.64ZM19.94 13.94C20.83 13.94 21.70 13.51 22.40 12.96L22.46 12.96L22.61 13.78L24.29 13.78L24.29 9.66C24.29 7.50 23.10 6.45 21.15 6.45C19.96 6.45 18.86 6.87 18.19 7.43L18.91 8.78C19.42 8.37 20.08 8.11 20.75 8.11C21.69 8.11 22.16 8.51 22.23 9.18C18.94 9.39 17.65 10.21 17.65 11.80C17.65 13.01 18.54 13.94 19.94 13.94ZM20.59 12.35C20.01 12.35 19.63 12.12 19.63 11.65C19.63 11.00 20.19 10.54 22.23 10.42L22.23 11.65C21.74 12.05 21.21 12.35 20.59 12.35ZM28.78 13.94C29.48 13.94 30.20 13.55 30.72 13.03L30.76 13.03L30.91 13.78L32.59 13.78L32.59 3.65L30.53 3.65L30.53 6.12L30.60 7.24C30.11 6.76 29.62 6.45 28.83 6.45C27.31 6.45 25.86 7.87 25.86 10.21C25.86 12.54 27.02 13.94 28.78 13.94ZM29.32 12.26C28.46 12.26 27.97 11.61 27.97 10.18C27.97 8.81 28.62 8.13 29.37 8.13C29.78 8.13 30.16 8.27 30.53 8.64L30.53 11.58C30.17 12.07 29.78 12.26 29.32 12.26Z"></path></g><!----><!----></svg>